<svg xmlns="http://www.w3.org/2000/svg" xmlns:xlink="http://www.w3.org/1999/xlink" width="500" zoomAndPan="magnify" viewBox="0 0 375 374.999991" height="500" preserveAspectRatio="xMidYMid meet" version="1.0"><defs><g/><clipPath id="977907cefe"><path d="M 68 132 L 375 132 L 375 182 L 68 182 Z M 68 132 " clip-rule="nonzero"/></clipPath><clipPath id="bb8ff29075"><path d="M 65.214844 131.429688 L 375.019531 110.691406 L 379.277344 174.300781 L 69.472656 195.039062 Z M 65.214844 131.429688 " clip-rule="nonzero"/></clipPath><clipPath id="bc071cc57a"><path d="M 69.488281 195.296875 L 379.296875 174.558594 L 375.039062 110.949219 L 65.230469 131.6875 Z M 69.488281 195.296875 " clip-rule="nonzero"/></clipPath><clipPath id="fca7aca7ff"><path d="M 63 129 L 374 129 L 374 179 L 63 179 Z M 63 129 " clip-rule="nonzero"/></clipPath><clipPath id="bfa9ccf0a7"><path d="M 61.046875 128.429688 L 370.855469 107.691406 L 375.113281 171.300781 L 65.304688 192.039062 Z M 61.046875 128.429688 " clip-rule="nonzero"/></clipPath><clipPath id="91d3969679"><path d="M 65.324219 192.296875 L 375.128906 171.558594 L 370.871094 107.949219 L 61.066406 128.6875 Z M 65.324219 192.296875 " clip-rule="nonzero"/></clipPath></defs><g fill="#000000" fill-opacity="1"><g transform="translate(38.957989, 235.391277)"><g><path d="M 143.921875 -28.109375 C 144.617188 -28.171875 144.9375 -27.644531 144.875 -26.53125 C 144.8125 -25.414062 144.367188 -24.828125 143.546875 -24.765625 C 142.765625 -24.640625 142.050781 -24.265625 141.40625 -23.640625 C 140.769531 -23.015625 140.453125 -22.328125 140.453125 -21.578125 C 140.640625 -14.898438 139.785156 -8.472656 137.890625 -2.296875 C 135.992188 3.867188 133.460938 9.820312 130.296875 15.5625 C 124.023438 27.46875 116.410156 38.054688 107.453125 47.328125 C 98.492188 56.609375 88.007812 64.429688 76 70.796875 C 69.394531 74.234375 62.585938 76.8125 55.578125 78.53125 C 48.578125 80.257812 41.316406 80.90625 33.796875 80.46875 C 27.523438 80.125 21.632812 78.445312 16.125 75.4375 C 9.570312 71.550781 5.242188 66.488281 3.140625 60.25 C 1.046875 54.019531 1.441406 47.394531 4.328125 40.375 C 7.367188 33.539062 12.144531 27.175781 18.65625 21.28125 C 25.175781 15.394531 32.757812 9.984375 41.40625 5.046875 C 50.0625 0.117188 59.082031 -4.238281 68.46875 -8.03125 C 77.851562 -11.820312 86.898438 -15.054688 95.609375 -17.734375 C 104.316406 -20.421875 112.054688 -22.453125 118.828125 -23.828125 C 120.671875 -24.265625 122.488281 -24.65625 124.28125 -25 C 126.21875 -25.351562 128.113281 -25.734375 129.96875 -26.140625 C 131.5625 -26.421875 132.125 -27.28125 131.65625 -28.71875 C 130.0625 -35.332031 126.882812 -41.019531 122.125 -45.78125 C 118.675781 -49.164062 114.9375 -52.023438 110.90625 -54.359375 C 106.882812 -56.691406 102.628906 -58.660156 98.140625 -60.265625 C 84.703125 -65.023438 70.804688 -67.703125 56.453125 -68.296875 C 55.484375 -68.390625 54.476562 -68.4375 53.4375 -68.4375 C 52.28125 -68.34375 51.671875 -67.71875 51.609375 -66.5625 C 51.453125 -65.175781 51.375 -63.796875 51.375 -62.421875 C 51.3125 -51.609375 51.28125 -40.78125 51.28125 -29.9375 C 51.21875 -25.175781 51.1875 -20.382812 51.1875 -15.5625 C 51.1875 -15.21875 51.1875 -14.921875 51.1875 -14.671875 C 51.1875 -13.972656 51.1875 -13.28125 51.1875 -12.59375 C 50.84375 -9.488281 49.226562 -8.410156 46.34375 -9.359375 C 45.21875 -9.703125 44.625 -10.4375 44.5625 -11.5625 C 44.4375 -13.125 44.40625 -14.707031 44.46875 -16.3125 C 44.40625 -26.082031 44.375 -35.828125 44.375 -45.546875 C 44.375 -50.460938 44.375 -55.335938 44.375 -60.171875 C 44.375 -60.578125 44.375 -60.984375 44.375 -61.390625 C 44.375 -62.546875 44.34375 -63.75 44.28125 -65 C 44.28125 -66.320312 44.082031 -67.1875 43.6875 -67.59375 C 43.300781 -68 42.492188 -68.234375 41.265625 -68.296875 C 40.703125 -68.296875 40.1875 -68.296875 39.71875 -68.296875 C 38.40625 -68.390625 37.117188 -68.5 35.859375 -68.625 C 34.765625 -68.75 34.015625 -69.328125 33.609375 -70.359375 C 33.265625 -71.679688 33.609375 -72.765625 34.640625 -73.609375 C 36.015625 -74.703125 37.457031 -75.769531 38.96875 -76.8125 C 39.59375 -77.21875 40.15625 -77.5625 40.65625 -77.84375 C 41.8125 -78.59375 42.648438 -79.207031 43.171875 -79.6875 C 43.691406 -80.175781 44.003906 -80.726562 44.109375 -81.34375 C 44.222656 -81.957031 44.28125 -82.921875 44.28125 -84.234375 C 44.1875 -84.984375 44.140625 -85.875 44.140625 -86.90625 C 44.234375 -94.707031 44.28125 -102.539062 44.28125 -110.40625 C 44.28125 -114.738281 44.28125 -119.113281 44.28125 -123.53125 C 44.28125 -123.59375 44.28125 -123.703125 44.28125 -123.859375 C 44.28125 -125.359375 44.34375 -126.832031 44.46875 -128.28125 C 44.59375 -130.15625 45.6875 -131.0625 47.75 -131 C 49.757812 -131.0625 50.90625 -130.203125 51.1875 -128.421875 C 51.3125 -126.597656 51.375 -124.765625 51.375 -122.921875 C 51.375 -118.210938 51.375 -113.523438 51.375 -108.859375 C 51.375 -103.128906 51.421875 -97.441406 51.515625 -91.796875 C 51.421875 -91.390625 51.375 -91.015625 51.375 -90.671875 C 51.25 -89.078125 51.5 -87.242188 52.125 -85.171875 C 56.664062 -87.804688 62.15625 -91.132812 68.59375 -95.15625 C 75.039062 -99.1875 81.609375 -103.507812 88.296875 -108.125 C 94.984375 -112.75 100.910156 -117.375 106.078125 -122 C 111.253906 -126.625 114.847656 -130.894531 116.859375 -134.8125 C 118.984375 -139.289062 118.007812 -142.972656 113.9375 -145.859375 C 108.925781 -149.242188 102.441406 -151.09375 94.484375 -151.40625 C 86.523438 -151.71875 78.125 -150.867188 69.28125 -148.859375 C 60.445312 -146.859375 52.238281 -144.070312 44.65625 -140.5 C 37.070312 -136.925781 31.085938 -132.898438 26.703125 -128.421875 C 25.316406 -126.941406 24.066406 -125.191406 22.953125 -123.171875 C 21.847656 -121.148438 20.984375 -119.140625 20.359375 -117.140625 C 19.878906 -115.878906 18.953125 -115.144531 17.578125 -114.9375 C 16.203125 -114.738281 15.023438 -115.128906 14.046875 -116.109375 C 13.578125 -116.796875 13.4375 -117.546875 13.625 -118.359375 C 14.257812 -120.710938 15.34375 -122.859375 16.875 -124.796875 C 21.757812 -131.066406 28.695312 -136.539062 37.6875 -141.21875 C 46.6875 -145.90625 56.441406 -149.453125 66.953125 -151.859375 C 77.472656 -154.273438 87.457031 -155.28125 96.90625 -154.875 C 106.351562 -154.46875 113.972656 -152.320312 119.765625 -148.4375 C 125.691406 -144.394531 126.960938 -139.191406 123.578125 -132.828125 C 121.847656 -129.671875 119.316406 -126.453125 115.984375 -123.171875 C 112.648438 -119.898438 109.101562 -116.796875 105.34375 -113.859375 C 101.582031 -110.929688 98.242188 -108.40625 95.328125 -106.28125 C 90.023438 -102.425781 84.582031 -98.71875 79 -95.15625 C 73.425781 -91.601562 67.804688 -88.132812 62.140625 -84.75 C 62.015625 -84.6875 61.875 -84.59375 61.71875 -84.46875 C 58.894531 -82.863281 56.132812 -81.203125 53.4375 -79.484375 C 51.53125 -78.046875 50.953125 -76.117188 51.703125 -73.703125 C 51.765625 -73.484375 51.921875 -73.253906 52.171875 -73.015625 C 52.421875 -72.785156 52.671875 -72.671875 52.921875 -72.671875 C 54.054688 -72.453125 55.171875 -72.34375 56.265625 -72.34375 C 56.328125 -72.34375 56.421875 -72.34375 56.546875 -72.34375 C 71.460938 -71.9375 85.988281 -69.378906 100.125 -64.671875 C 107.957031 -62.203125 115.257812 -58.585938 122.03125 -53.828125 C 126.101562 -50.941406 129.5625 -47.632812 132.40625 -43.90625 C 135.257812 -40.175781 137.378906 -35.894531 138.765625 -31.0625 C 139.203125 -29.5 139.707031 -28.546875 140.28125 -28.203125 C 140.863281 -27.859375 142.078125 -27.828125 143.921875 -28.109375 Z M 132.78125 -16.3125 C 133.070312 -19.132812 132.867188 -20.859375 132.171875 -21.484375 C 131.484375 -22.109375 129.710938 -22.078125 126.859375 -21.390625 C 120.128906 -20.003906 112.523438 -18.066406 104.046875 -15.578125 C 95.566406 -13.085938 86.84375 -10.046875 77.875 -6.453125 C 68.914062 -2.867188 60.300781 1.242188 52.03125 5.890625 C 43.757812 10.546875 36.46875 15.71875 30.15625 21.40625 C 23.84375 27.09375 19.101562 33.335938 15.9375 40.140625 C 13.644531 45.304688 12.597656 50.1875 12.796875 54.78125 C 13.003906 59.375 14.179688 63.335938 16.328125 66.671875 C 18.472656 70.015625 21.300781 72.375 24.8125 73.75 C 29.300781 75.46875 33.957031 76.410156 38.78125 76.578125 C 39.125 76.578125 39.4375 76.546875 39.71875 76.484375 C 40.40625 76.378906 41.09375 76.328125 41.78125 76.328125 C 50.875 75.453125 59.460938 72.976562 67.546875 68.90625 C 82.273438 61.601562 94.707031 52.191406 104.84375 40.671875 C 114.976562 29.160156 123.007812 15.789062 128.9375 0.5625 C 131 -4.882812 132.28125 -10.507812 132.78125 -16.3125 Z M 132.78125 -16.3125 "/></g></g></g><g fill="#000000" fill-opacity="1"><g transform="translate(189.271536, 235.391277)"><g><path d="M 53.1875 -24.15625 C 52.320312 -21.53125 50.613281 -18.515625 48.0625 -15.109375 C 45.507812 -11.710938 42.320312 -9.523438 38.5 -8.546875 C 34.675781 -7.578125 31.367188 -7.710938 28.578125 -8.953125 C 25.785156 -10.191406 24.25 -13.503906 23.96875 -18.890625 C 20.800781 -12.753906 17.785156 -8.820312 14.921875 -7.09375 C 12.054688 -5.375 9.070312 -4.71875 5.96875 -5.125 C 2.457031 -5.6875 0.0820312 -7.046875 -1.15625 -9.203125 C -2.394531 -11.367188 -2.804688 -13.867188 -2.390625 -16.703125 C -1.984375 -19.546875 -1.125 -22.265625 0.1875 -24.859375 C 1.21875 -26.804688 2.648438 -28.609375 4.484375 -30.265625 C 6.316406 -31.929688 8.238281 -33.234375 10.25 -34.171875 C 12.71875 -35.421875 15.207031 -36.015625 17.71875 -35.953125 C 20.226562 -35.890625 22.910156 -35.0625 25.765625 -33.46875 C 25.828125 -33.40625 25.859375 -33.46875 25.859375 -33.65625 C 25.859375 -33.9375 25.925781 -34.285156 26.0625 -34.703125 C 26.207031 -35.128906 26.453125 -35.46875 26.796875 -35.71875 C 27.734375 -36.40625 28.84375 -36.75 30.125 -36.75 C 31.414062 -36.75 32.40625 -36.109375 33.09375 -34.828125 C 33.21875 -33.171875 33.046875 -31.054688 32.578125 -28.484375 C 31.535156 -22.847656 31.53125 -18.789062 32.5625 -16.3125 C 33.601562 -13.832031 35.429688 -12.675781 38.046875 -12.84375 C 40.660156 -13.019531 44.050781 -15.609375 48.21875 -20.609375 C 52.394531 -25.609375 54.050781 -26.789062 53.1875 -24.15625 Z M 6.90625 -10.90625 C 8.351562 -9.875 10.007812 -10.015625 11.875 -11.328125 C 13.738281 -12.640625 15.53125 -14.503906 17.25 -16.921875 C 18.976562 -19.335938 20.425781 -21.75 21.59375 -24.15625 C 22.769531 -26.570312 23.421875 -28.359375 23.546875 -29.515625 C 20.035156 -31.398438 17.023438 -31.722656 14.515625 -30.484375 C 12.015625 -29.242188 10.019531 -27.222656 8.53125 -24.421875 C 7.039062 -21.617188 6.15625 -18.890625 5.875 -16.234375 C 5.59375 -13.585938 5.9375 -11.8125 6.90625 -10.90625 Z M 6.90625 -10.90625 "/></g></g></g><g fill="#000000" fill-opacity="1"><g transform="translate(239.094037, 235.391277)"><g><path d="M 28.53125 -25.65625 C 28.53125 -24.9375 27.007812 -23.660156 23.96875 -21.828125 C 20.925781 -19.992188 18.6875 -18.613281 17.25 -17.6875 C 15.8125 -16.769531 15.09375 -16.203125 15.09375 -15.984375 C 15.375 -15.359375 15.671875 -14.304688 15.984375 -12.828125 C 16.296875 -11.359375 16.410156 -9.757812 16.328125 -8.03125 C 16.253906 -6.3125 15.695312 -4.773438 14.65625 -3.421875 C 13.625 -2.078125 11.90625 -1.265625 9.5 -0.984375 C 7.082031 -0.796875 4.925781 -1.164062 3.03125 -2.09375 C 1.132812 -3.019531 -0.0507812 -4.359375 -0.53125 -6.109375 C -1.019531 -7.867188 -0.4375 -9.921875 1.21875 -12.265625 C 2.320312 -13.585938 3.640625 -14.734375 5.171875 -15.703125 C 5.703125 -16.046875 6.25 -16.421875 6.8125 -16.828125 C 4.96875 -18.835938 3.210938 -20.890625 1.546875 -22.984375 C -0.109375 -25.085938 -1.171875 -26.96875 -1.640625 -28.625 C -2.140625 -30.539062 -1.816406 -32.34375 -0.671875 -34.03125 C 0.460938 -35.71875 2.441406 -36.707031 5.265625 -37 C 6.640625 -37.125 7.929688 -37.050781 9.140625 -36.78125 C 10.347656 -36.507812 11.46875 -35.921875 12.5 -35.015625 C 12.71875 -34.796875 12.875 -34.550781 12.96875 -34.28125 C 13.0625 -34.019531 13.015625 -33.6875 12.828125 -33.28125 C 12.484375 -32.65625 11.96875 -32.34375 11.28125 -32.34375 C 10.78125 -32.34375 10.296875 -32.40625 9.828125 -32.53125 C 9.328125 -32.75 8.867188 -32.953125 8.453125 -33.140625 C 8.171875 -33.296875 7.90625 -33.4375 7.65625 -33.5625 C 6.75 -33.90625 6.050781 -33.859375 5.5625 -33.421875 C 5.082031 -32.984375 4.84375 -32.3125 4.84375 -31.40625 C 4.90625 -29.800781 5.5625 -28.085938 6.8125 -26.265625 C 8.070312 -24.453125 9.3125 -22.78125 10.53125 -21.25 C 11.03125 -20.71875 11.453125 -20.195312 11.796875 -19.6875 C 12.140625 -19.34375 13.046875 -19.398438 14.515625 -19.859375 C 15.992188 -20.316406 18.695312 -21.578125 22.625 -23.640625 C 26.5625 -25.710938 28.53125 -26.382812 28.53125 -25.65625 Z M 7.515625 -4.515625 C 8.429688 -4.578125 9.03125 -5.078125 9.3125 -6.015625 C 9.59375 -6.953125 9.691406 -7.984375 9.609375 -9.109375 C 9.535156 -10.242188 9.46875 -11.09375 9.40625 -11.65625 C 9.28125 -12 9.054688 -12.21875 8.734375 -12.3125 C 8.421875 -12.40625 8.125 -12.390625 7.84375 -12.265625 C 6.8125 -11.453125 6.050781 -10.414062 5.5625 -9.15625 C 5.082031 -7.90625 5.125 -6.8125 5.6875 -5.875 C 5.875 -5.53125 6.125 -5.234375 6.4375 -4.984375 C 6.75 -4.734375 7.109375 -4.578125 7.515625 -4.515625 Z M 7.515625 -4.515625 "/></g></g></g><g fill="#000000" fill-opacity="1"><g transform="translate(264.42832, 235.391277)"><g><path d="M 45.3125 -22.703125 C 46 -23.109375 46.671875 -23.421875 47.328125 -23.640625 C 47.992188 -23.859375 48.425781 -23.84375 48.625 -23.59375 C 48.832031 -23.34375 48.554688 -22.78125 47.796875 -21.90625 C 45.453125 -19.207031 42.640625 -16.738281 39.359375 -14.5 C 36.085938 -12.257812 32.726562 -10.375 29.28125 -8.84375 C 26.582031 -7.613281 23.738281 -6.640625 20.75 -5.921875 C 17.757812 -5.203125 14.796875 -5.046875 11.859375 -5.453125 C 8.929688 -5.859375 6.265625 -7.160156 3.859375 -9.359375 C 0.191406 -12.742188 -1.328125 -16.878906 -0.703125 -21.765625 C -0.171875 -25.648438 1.335938 -28.945312 3.828125 -31.65625 C 6.316406 -34.363281 9.457031 -36.207031 13.25 -37.1875 C 16.414062 -37.875 19.582031 -37.953125 22.75 -37.421875 C 24.1875 -37.203125 25.503906 -36.710938 26.703125 -35.953125 C 27.796875 -35.109375 28.394531 -34.125 28.5 -33 C 28.613281 -31.875 28.1875 -30.789062 27.21875 -29.75 C 25.207031 -27.96875 22.890625 -26.90625 20.265625 -26.5625 C 17.316406 -26.0625 14.351562 -25.75 11.375 -25.625 C 9.9375 -25.625 8.925781 -25.320312 8.34375 -24.71875 C 7.757812 -24.125 7.421875 -23.109375 7.328125 -21.671875 C 6.859375 -17.753906 8.113281 -14.554688 11.09375 -12.078125 C 12.9375 -10.609375 15.179688 -9.984375 17.828125 -10.203125 C 20.484375 -10.421875 23.296875 -11.128906 26.265625 -12.328125 C 29.242188 -13.535156 32.160156 -14.945312 35.015625 -16.5625 C 37.867188 -18.175781 40.441406 -19.707031 42.734375 -21.15625 C 43.703125 -21.78125 44.5625 -22.296875 45.3125 -22.703125 Z M 12.640625 -31.0625 C 12.640625 -31 12.59375 -30.96875 12.5 -30.96875 C 12.375 -30.84375 12.207031 -30.691406 12 -30.515625 C 11.800781 -30.347656 11.613281 -30.175781 11.4375 -30 C 11.269531 -29.832031 11.1875 -29.71875 11.1875 -29.65625 C 11.25 -29.4375 11.8125 -29.378906 12.875 -29.484375 C 13.945312 -29.597656 15.125 -29.785156 16.40625 -30.046875 C 17.6875 -30.316406 18.757812 -30.679688 19.625 -31.140625 C 20.488281 -31.597656 20.75 -32.140625 20.40625 -32.765625 C 20.25 -32.953125 20.050781 -33.113281 19.8125 -33.25 C 19.570312 -33.394531 19.3125 -33.5 19.03125 -33.5625 C 17.78125 -33.5625 16.632812 -33.316406 15.59375 -32.828125 C 14.5625 -32.347656 13.578125 -31.757812 12.640625 -31.0625 Z M 12.640625 -31.0625 "/></g></g></g><g fill="#00bf63" fill-opacity="1"><g transform="translate(36.707989, 233.141277)"><g><path d="M 143.921875 -28.109375 C 144.617188 -28.171875 144.9375 -27.644531 144.875 -26.53125 C 144.8125 -25.414062 144.367188 -24.828125 143.546875 -24.765625 C 142.765625 -24.640625 142.050781 -24.265625 141.40625 -23.640625 C 140.769531 -23.015625 140.453125 -22.328125 140.453125 -21.578125 C 140.640625 -14.898438 139.785156 -8.472656 137.890625 -2.296875 C 135.992188 3.867188 133.460938 9.820312 130.296875 15.5625 C 124.023438 27.46875 116.410156 38.054688 107.453125 47.328125 C 98.492188 56.609375 88.007812 64.429688 76 70.796875 C 69.394531 74.234375 62.585938 76.8125 55.578125 78.53125 C 48.578125 80.257812 41.316406 80.90625 33.796875 80.46875 C 27.523438 80.125 21.632812 78.445312 16.125 75.4375 C 9.570312 71.550781 5.242188 66.488281 3.140625 60.25 C 1.046875 54.019531 1.441406 47.394531 4.328125 40.375 C 7.367188 33.539062 12.144531 27.175781 18.65625 21.28125 C 25.175781 15.394531 32.757812 9.984375 41.40625 5.046875 C 50.0625 0.117188 59.082031 -4.238281 68.46875 -8.03125 C 77.851562 -11.820312 86.898438 -15.054688 95.609375 -17.734375 C 104.316406 -20.421875 112.054688 -22.453125 118.828125 -23.828125 C 120.671875 -24.265625 122.488281 -24.65625 124.28125 -25 C 126.21875 -25.351562 128.113281 -25.734375 129.96875 -26.140625 C 131.5625 -26.421875 132.125 -27.28125 131.65625 -28.71875 C 130.0625 -35.332031 126.882812 -41.019531 122.125 -45.78125 C 118.675781 -49.164062 114.9375 -52.023438 110.90625 -54.359375 C 106.882812 -56.691406 102.628906 -58.660156 98.140625 -60.265625 C 84.703125 -65.023438 70.804688 -67.703125 56.453125 -68.296875 C 55.484375 -68.390625 54.476562 -68.4375 53.4375 -68.4375 C 52.28125 -68.34375 51.671875 -67.71875 51.609375 -66.5625 C 51.453125 -65.175781 51.375 -63.796875 51.375 -62.421875 C 51.3125 -51.609375 51.28125 -40.78125 51.28125 -29.9375 C 51.21875 -25.175781 51.1875 -20.382812 51.1875 -15.5625 C 51.1875 -15.21875 51.1875 -14.921875 51.1875 -14.671875 C 51.1875 -13.972656 51.1875 -13.28125 51.1875 -12.59375 C 50.84375 -9.488281 49.226562 -8.410156 46.34375 -9.359375 C 45.21875 -9.703125 44.625 -10.4375 44.5625 -11.5625 C 44.4375 -13.125 44.40625 -14.707031 44.46875 -16.3125 C 44.40625 -26.082031 44.375 -35.828125 44.375 -45.546875 C 44.375 -50.460938 44.375 -55.335938 44.375 -60.171875 C 44.375 -60.578125 44.375 -60.984375 44.375 -61.390625 C 44.375 -62.546875 44.34375 -63.75 44.28125 -65 C 44.28125 -66.320312 44.082031 -67.1875 43.6875 -67.59375 C 43.300781 -68 42.492188 -68.234375 41.265625 -68.296875 C 40.703125 -68.296875 40.1875 -68.296875 39.71875 -68.296875 C 38.40625 -68.390625 37.117188 -68.5 35.859375 -68.625 C 34.765625 -68.75 34.015625 -69.328125 33.609375 -70.359375 C 33.265625 -71.679688 33.609375 -72.765625 34.640625 -73.609375 C 36.015625 -74.703125 37.457031 -75.769531 38.96875 -76.8125 C 39.59375 -77.21875 40.15625 -77.5625 40.65625 -77.84375 C 41.8125 -78.59375 42.648438 -79.207031 43.171875 -79.6875 C 43.691406 -80.175781 44.003906 -80.726562 44.109375 -81.34375 C 44.222656 -81.957031 44.28125 -82.921875 44.28125 -84.234375 C 44.1875 -84.984375 44.140625 -85.875 44.140625 -86.90625 C 44.234375 -94.707031 44.28125 -102.539062 44.28125 -110.40625 C 44.28125 -114.738281 44.28125 -119.113281 44.28125 -123.53125 C 44.28125 -123.59375 44.28125 -123.703125 44.28125 -123.859375 C 44.28125 -125.359375 44.34375 -126.832031 44.46875 -128.28125 C 44.59375 -130.15625 45.6875 -131.0625 47.75 -131 C 49.757812 -131.0625 50.90625 -130.203125 51.1875 -128.421875 C 51.3125 -126.597656 51.375 -124.765625 51.375 -122.921875 C 51.375 -118.210938 51.375 -113.523438 51.375 -108.859375 C 51.375 -103.128906 51.421875 -97.441406 51.515625 -91.796875 C 51.421875 -91.390625 51.375 -91.015625 51.375 -90.671875 C 51.25 -89.078125 51.5 -87.242188 52.125 -85.171875 C 56.664062 -87.804688 62.15625 -91.132812 68.59375 -95.15625 C 75.039062 -99.1875 81.609375 -103.507812 88.296875 -108.125 C 94.984375 -112.75 100.910156 -117.375 106.078125 -122 C 111.253906 -126.625 114.847656 -130.894531 116.859375 -134.8125 C 118.984375 -139.289062 118.007812 -142.972656 113.9375 -145.859375 C 108.925781 -149.242188 102.441406 -151.09375 94.484375 -151.40625 C 86.523438 -151.71875 78.125 -150.867188 69.28125 -148.859375 C 60.445312 -146.859375 52.238281 -144.070312 44.65625 -140.5 C 37.070312 -136.925781 31.085938 -132.898438 26.703125 -128.421875 C 25.316406 -126.941406 24.066406 -125.191406 22.953125 -123.171875 C 21.847656 -121.148438 20.984375 -119.140625 20.359375 -117.140625 C 19.878906 -115.878906 18.953125 -115.144531 17.578125 -114.9375 C 16.203125 -114.738281 15.023438 -115.128906 14.046875 -116.109375 C 13.578125 -116.796875 13.4375 -117.546875 13.625 -118.359375 C 14.257812 -120.710938 15.34375 -122.859375 16.875 -124.796875 C 21.757812 -131.066406 28.695312 -136.539062 37.6875 -141.21875 C 46.6875 -145.90625 56.441406 -149.453125 66.953125 -151.859375 C 77.472656 -154.273438 87.457031 -155.28125 96.90625 -154.875 C 106.351562 -154.46875 113.972656 -152.320312 119.765625 -148.4375 C 125.691406 -144.394531 126.960938 -139.191406 123.578125 -132.828125 C 121.847656 -129.671875 119.316406 -126.453125 115.984375 -123.171875 C 112.648438 -119.898438 109.101562 -116.796875 105.34375 -113.859375 C 101.582031 -110.929688 98.242188 -108.40625 95.328125 -106.28125 C 90.023438 -102.425781 84.582031 -98.71875 79 -95.15625 C 73.425781 -91.601562 67.804688 -88.132812 62.140625 -84.75 C 62.015625 -84.6875 61.875 -84.59375 61.71875 -84.46875 C 58.894531 -82.863281 56.132812 -81.203125 53.4375 -79.484375 C 51.53125 -78.046875 50.953125 -76.117188 51.703125 -73.703125 C 51.765625 -73.484375 51.921875 -73.253906 52.171875 -73.015625 C 52.421875 -72.785156 52.671875 -72.671875 52.921875 -72.671875 C 54.054688 -72.453125 55.171875 -72.34375 56.265625 -72.34375 C 56.328125 -72.34375 56.421875 -72.34375 56.546875 -72.34375 C 71.460938 -71.9375 85.988281 -69.378906 100.125 -64.671875 C 107.957031 -62.203125 115.257812 -58.585938 122.03125 -53.828125 C 126.101562 -50.941406 129.5625 -47.632812 132.40625 -43.90625 C 135.257812 -40.175781 137.378906 -35.894531 138.765625 -31.0625 C 139.203125 -29.5 139.707031 -28.546875 140.28125 -28.203125 C 140.863281 -27.859375 142.078125 -27.828125 143.921875 -28.109375 Z M 132.78125 -16.3125 C 133.070312 -19.132812 132.867188 -20.859375 132.171875 -21.484375 C 131.484375 -22.109375 129.710938 -22.078125 126.859375 -21.390625 C 120.128906 -20.003906 112.523438 -18.066406 104.046875 -15.578125 C 95.566406 -13.085938 86.84375 -10.046875 77.875 -6.453125 C 68.914062 -2.867188 60.300781 1.242188 52.03125 5.890625 C 43.757812 10.546875 36.46875 15.71875 30.15625 21.40625 C 23.84375 27.09375 19.101562 33.335938 15.9375 40.140625 C 13.644531 45.304688 12.597656 50.1875 12.796875 54.78125 C 13.003906 59.375 14.179688 63.335938 16.328125 66.671875 C 18.472656 70.015625 21.300781 72.375 24.8125 73.75 C 29.300781 75.46875 33.957031 76.410156 38.78125 76.578125 C 39.125 76.578125 39.4375 76.546875 39.71875 76.484375 C 40.40625 76.378906 41.09375 76.328125 41.78125 76.328125 C 50.875 75.453125 59.460938 72.976562 67.546875 68.90625 C 82.273438 61.601562 94.707031 52.191406 104.84375 40.671875 C 114.976562 29.160156 123.007812 15.789062 128.9375 0.5625 C 131 -4.882812 132.28125 -10.507812 132.78125 -16.3125 Z M 132.78125 -16.3125 "/></g></g></g><g fill="#00bf63" fill-opacity="1"><g transform="translate(187.021536, 233.141277)"><g><path d="M 53.1875 -24.15625 C 52.320312 -21.53125 50.613281 -18.515625 48.0625 -15.109375 C 45.507812 -11.710938 42.320312 -9.523438 38.5 -8.546875 C 34.675781 -7.578125 31.367188 -7.710938 28.578125 -8.953125 C 25.785156 -10.191406 24.25 -13.503906 23.96875 -18.890625 C 20.800781 -12.753906 17.785156 -8.820312 14.921875 -7.09375 C 12.054688 -5.375 9.070312 -4.71875 5.96875 -5.125 C 2.457031 -5.6875 0.0820312 -7.046875 -1.15625 -9.203125 C -2.394531 -11.367188 -2.804688 -13.867188 -2.390625 -16.703125 C -1.984375 -19.546875 -1.125 -22.265625 0.1875 -24.859375 C 1.21875 -26.804688 2.648438 -28.609375 4.484375 -30.265625 C 6.316406 -31.929688 8.238281 -33.234375 10.25 -34.171875 C 12.71875 -35.421875 15.207031 -36.015625 17.71875 -35.953125 C 20.226562 -35.890625 22.910156 -35.0625 25.765625 -33.46875 C 25.828125 -33.40625 25.859375 -33.46875 25.859375 -33.65625 C 25.859375 -33.9375 25.925781 -34.285156 26.0625 -34.703125 C 26.207031 -35.128906 26.453125 -35.46875 26.796875 -35.71875 C 27.734375 -36.40625 28.84375 -36.75 30.125 -36.75 C 31.414062 -36.75 32.40625 -36.109375 33.09375 -34.828125 C 33.21875 -33.171875 33.046875 -31.054688 32.578125 -28.484375 C 31.535156 -22.847656 31.53125 -18.789062 32.5625 -16.3125 C 33.601562 -13.832031 35.429688 -12.675781 38.046875 -12.84375 C 40.660156 -13.019531 44.050781 -15.609375 48.21875 -20.609375 C 52.394531 -25.609375 54.050781 -26.789062 53.1875 -24.15625 Z M 6.90625 -10.90625 C 8.351562 -9.875 10.007812 -10.015625 11.875 -11.328125 C 13.738281 -12.640625 15.53125 -14.503906 17.25 -16.921875 C 18.976562 -19.335938 20.425781 -21.75 21.59375 -24.15625 C 22.769531 -26.570312 23.421875 -28.359375 23.546875 -29.515625 C 20.035156 -31.398438 17.023438 -31.722656 14.515625 -30.484375 C 12.015625 -29.242188 10.019531 -27.222656 8.53125 -24.421875 C 7.039062 -21.617188 6.15625 -18.890625 5.875 -16.234375 C 5.59375 -13.585938 5.9375 -11.8125 6.90625 -10.90625 Z M 6.90625 -10.90625 "/></g></g></g><g fill="#00bf63" fill-opacity="1"><g transform="translate(236.844038, 233.141277)"><g><path d="M 28.53125 -25.65625 C 28.53125 -24.9375 27.007812 -23.660156 23.96875 -21.828125 C 20.925781 -19.992188 18.6875 -18.613281 17.25 -17.6875 C 15.8125 -16.769531 15.09375 -16.203125 15.09375 -15.984375 C 15.375 -15.359375 15.671875 -14.304688 15.984375 -12.828125 C 16.296875 -11.359375 16.410156 -9.757812 16.328125 -8.03125 C 16.253906 -6.3125 15.695312 -4.773438 14.65625 -3.421875 C 13.625 -2.078125 11.90625 -1.265625 9.5 -0.984375 C 7.082031 -0.796875 4.925781 -1.164062 3.03125 -2.09375 C 1.132812 -3.019531 -0.0507812 -4.359375 -0.53125 -6.109375 C -1.019531 -7.867188 -0.4375 -9.921875 1.21875 -12.265625 C 2.320312 -13.585938 3.640625 -14.734375 5.171875 -15.703125 C 5.703125 -16.046875 6.25 -16.421875 6.8125 -16.828125 C 4.96875 -18.835938 3.210938 -20.890625 1.546875 -22.984375 C -0.109375 -25.085938 -1.171875 -26.96875 -1.640625 -28.625 C -2.140625 -30.539062 -1.816406 -32.34375 -0.671875 -34.03125 C 0.460938 -35.71875 2.441406 -36.707031 5.265625 -37 C 6.640625 -37.125 7.929688 -37.050781 9.140625 -36.78125 C 10.347656 -36.507812 11.46875 -35.921875 12.5 -35.015625 C 12.71875 -34.796875 12.875 -34.550781 12.96875 -34.28125 C 13.0625 -34.019531 13.015625 -33.6875 12.828125 -33.28125 C 12.484375 -32.65625 11.96875 -32.34375 11.28125 -32.34375 C 10.78125 -32.34375 10.296875 -32.40625 9.828125 -32.53125 C 9.328125 -32.75 8.867188 -32.953125 8.453125 -33.140625 C 8.171875 -33.296875 7.90625 -33.4375 7.65625 -33.5625 C 6.75 -33.90625 6.050781 -33.859375 5.5625 -33.421875 C 5.082031 -32.984375 4.84375 -32.3125 4.84375 -31.40625 C 4.90625 -29.800781 5.5625 -28.085938 6.8125 -26.265625 C 8.070312 -24.453125 9.3125 -22.78125 10.53125 -21.25 C 11.03125 -20.71875 11.453125 -20.195312 11.796875 -19.6875 C 12.140625 -19.34375 13.046875 -19.398438 14.515625 -19.859375 C 15.992188 -20.316406 18.695312 -21.578125 22.625 -23.640625 C 26.5625 -25.710938 28.53125 -26.382812 28.53125 -25.65625 Z M 7.515625 -4.515625 C 8.429688 -4.578125 9.03125 -5.078125 9.3125 -6.015625 C 9.59375 -6.953125 9.691406 -7.984375 9.609375 -9.109375 C 9.535156 -10.242188 9.46875 -11.09375 9.40625 -11.65625 C 9.28125 -12 9.054688 -12.21875 8.734375 -12.3125 C 8.421875 -12.40625 8.125 -12.390625 7.84375 -12.265625 C 6.8125 -11.453125 6.050781 -10.414062 5.5625 -9.15625 C 5.082031 -7.90625 5.125 -6.8125 5.6875 -5.875 C 5.875 -5.53125 6.125 -5.234375 6.4375 -4.984375 C 6.75 -4.734375 7.109375 -4.578125 7.515625 -4.515625 Z M 7.515625 -4.515625 "/></g></g></g><g fill="#00bf63" fill-opacity="1"><g transform="translate(262.178321, 233.141277)"><g><path d="M 45.3125 -22.703125 C 46 -23.109375 46.671875 -23.421875 47.328125 -23.640625 C 47.992188 -23.859375 48.425781 -23.84375 48.625 -23.59375 C 48.832031 -23.34375 48.554688 -22.78125 47.796875 -21.90625 C 45.453125 -19.207031 42.640625 -16.738281 39.359375 -14.5 C 36.085938 -12.257812 32.726562 -10.375 29.28125 -8.84375 C 26.582031 -7.613281 23.738281 -6.640625 20.75 -5.921875 C 17.757812 -5.203125 14.796875 -5.046875 11.859375 -5.453125 C 8.929688 -5.859375 6.265625 -7.160156 3.859375 -9.359375 C 0.191406 -12.742188 -1.328125 -16.878906 -0.703125 -21.765625 C -0.171875 -25.648438 1.335938 -28.945312 3.828125 -31.65625 C 6.316406 -34.363281 9.457031 -36.207031 13.25 -37.1875 C 16.414062 -37.875 19.582031 -37.953125 22.75 -37.421875 C 24.1875 -37.203125 25.503906 -36.710938 26.703125 -35.953125 C 27.796875 -35.109375 28.394531 -34.125 28.5 -33 C 28.613281 -31.875 28.1875 -30.789062 27.21875 -29.75 C 25.207031 -27.96875 22.890625 -26.90625 20.265625 -26.5625 C 17.316406 -26.0625 14.351562 -25.75 11.375 -25.625 C 9.9375 -25.625 8.925781 -25.320312 8.34375 -24.71875 C 7.757812 -24.125 7.421875 -23.109375 7.328125 -21.671875 C 6.859375 -17.753906 8.113281 -14.554688 11.09375 -12.078125 C 12.9375 -10.609375 15.179688 -9.984375 17.828125 -10.203125 C 20.484375 -10.421875 23.296875 -11.128906 26.265625 -12.328125 C 29.242188 -13.535156 32.160156 -14.945312 35.015625 -16.5625 C 37.867188 -18.175781 40.441406 -19.707031 42.734375 -21.15625 C 43.703125 -21.78125 44.5625 -22.296875 45.3125 -22.703125 Z M 12.640625 -31.0625 C 12.640625 -31 12.59375 -30.96875 12.5 -30.96875 C 12.375 -30.84375 12.207031 -30.691406 12 -30.515625 C 11.800781 -30.347656 11.613281 -30.175781 11.4375 -30 C 11.269531 -29.832031 11.1875 -29.71875 11.1875 -29.65625 C 11.25 -29.4375 11.8125 -29.378906 12.875 -29.484375 C 13.945312 -29.597656 15.125 -29.785156 16.40625 -30.046875 C 17.6875 -30.316406 18.757812 -30.679688 19.625 -31.140625 C 20.488281 -31.597656 20.75 -32.140625 20.40625 -32.765625 C 20.25 -32.953125 20.050781 -33.113281 19.8125 -33.25 C 19.570312 -33.394531 19.3125 -33.5 19.03125 -33.5625 C 17.78125 -33.5625 16.632812 -33.316406 15.59375 -32.828125 C 14.5625 -32.347656 13.578125 -31.757812 12.640625 -31.0625 Z M 12.640625 -31.0625 "/></g></g></g><g clip-path="url(#977907cefe)"><g clip-path="url(#bb8ff29075)"><g clip-path="url(#bc071cc57a)"><path fill="#000000" d="M 71.445312 155.945312 C 70.695312 155.148438 69.445312 155.105469 68.648438 155.855469 C 67.847656 156.605469 67.804688 157.855469 68.554688 158.652344 C 73.214844 163.628906 77.324219 167.4375 81.703125 170.476562 L 81.828125 170.558594 C 86.191406 173.570312 90.777344 175.789062 96.371094 177.59375 C 132.210938 189.171875 179.519531 173.613281 225.640625 158.441406 C 289.753906 137.347656 351.53125 117.027344 374.128906 173.277344 C 374.53125 174.289062 375.6875 174.785156 376.703125 174.375 C 377.722656 173.972656 378.214844 172.820312 377.804688 171.800781 C 353.824219 112.117188 290.324219 133.003906 224.414062 154.6875 C 178.886719 169.664062 132.199219 185.023438 97.570312 173.839844 C 92.359375 172.15625 88.097656 170.097656 84.070312 167.316406 L 83.957031 167.230469 C 79.855469 164.382812 75.933594 160.742188 71.453125 155.953125 Z M 71.445312 155.945312 " fill-opacity="1" fill-rule="evenodd"/></g></g></g><g clip-path="url(#fca7aca7ff)"><g clip-path="url(#bfa9ccf0a7)"><g clip-path="url(#91d3969679)"><path fill="#00bf63" d="M 67.28125 152.945312 C 66.53125 152.148438 65.28125 152.105469 64.480469 152.855469 C 63.683594 153.605469 63.640625 154.855469 64.390625 155.652344 C 69.050781 160.628906 73.160156 164.4375 77.539062 167.476562 L 77.664062 167.558594 C 82.027344 170.570312 86.613281 172.789062 92.207031 174.59375 C 128.046875 186.171875 175.355469 170.613281 221.472656 155.441406 C 285.585938 134.347656 347.363281 114.027344 369.964844 170.277344 C 370.367188 171.289062 371.519531 171.785156 372.539062 171.375 C 373.554688 170.972656 374.050781 169.820312 373.640625 168.800781 C 349.65625 109.117188 286.15625 130.003906 220.246094 151.6875 C 174.722656 166.664062 128.035156 182.023438 93.40625 170.839844 C 88.195312 169.15625 83.933594 167.097656 79.902344 164.316406 L 79.789062 164.230469 C 75.691406 161.382812 71.769531 157.742188 67.289062 152.953125 Z M 67.28125 152.945312 " fill-opacity="1" fill-rule="evenodd"/></g></g></g><g fill="#000000" fill-opacity="1"><g transform="translate(189.328729, 261.657614)"><g><path d="M 1.9375 -12.953125 L 3.140625 -12.953125 L 8.515625 -5.921875 L 13.890625 -12.953125 L 15.09375 -12.953125 L 15.09375 0 L 13.703125 0 L 13.703125 -10.546875 L 8.515625 -3.703125 L 3.328125 -10.546875 L 3.328125 0 L 1.9375 0 Z M 1.9375 -12.953125 "/></g></g></g><g fill="#000000" fill-opacity="1"><g transform="translate(218.202484, 261.657614)"><g><path d="M 0.5625 -12.953125 L 2.03125 -12.953125 L 6.296875 -1.9375 L 10.546875 -12.953125 L 12.03125 -12.953125 L 6.9375 0 L 5.640625 0 Z M 0.5625 -12.953125 "/></g></g></g><g fill="#000000" fill-opacity="1"><g transform="translate(242.634861, 261.657614)"><g><path d="M 7.78125 0.1875 C 6.851562 0.1875 5.984375 0.015625 5.171875 -0.328125 C 4.367188 -0.679688 3.660156 -1.160156 3.046875 -1.765625 C 2.441406 -2.367188 1.96875 -3.070312 1.625 -3.875 C 1.28125 -4.6875 1.109375 -5.554688 1.109375 -6.484375 C 1.109375 -7.410156 1.28125 -8.273438 1.625 -9.078125 C 1.96875 -9.890625 2.441406 -10.597656 3.046875 -11.203125 C 3.660156 -11.804688 4.367188 -12.28125 5.171875 -12.625 C 5.984375 -12.96875 6.851562 -13.140625 7.78125 -13.140625 C 8.664062 -13.140625 9.4375 -13 10.09375 -12.71875 C 10.75 -12.4375 11.296875 -12.128906 11.734375 -11.796875 C 12.242188 -11.398438 12.679688 -10.957031 13.046875 -10.46875 L 12.125 -9.625 C 11.832031 -10.039062 11.472656 -10.410156 11.046875 -10.734375 C 10.691406 -11.023438 10.242188 -11.28125 9.703125 -11.5 C 9.160156 -11.726562 8.519531 -11.84375 7.78125 -11.84375 C 7.039062 -11.84375 6.347656 -11.707031 5.703125 -11.4375 C 5.054688 -11.164062 4.492188 -10.789062 4.015625 -10.3125 C 3.546875 -9.832031 3.175781 -9.265625 2.90625 -8.609375 C 2.632812 -7.953125 2.5 -7.242188 2.5 -6.484375 C 2.5 -5.710938 2.632812 -5 2.90625 -4.34375 C 3.175781 -3.695312 3.546875 -3.128906 4.015625 -2.640625 C 4.492188 -2.160156 5.054688 -1.785156 5.703125 -1.515625 C 6.347656 -1.242188 7.039062 -1.109375 7.78125 -1.109375 C 8.519531 -1.109375 9.164062 -1.222656 9.71875 -1.453125 C 10.269531 -1.679688 10.734375 -1.9375 11.109375 -2.21875 C 11.535156 -2.539062 11.90625 -2.910156 12.21875 -3.328125 L 13.140625 -2.5 C 12.765625 -1.988281 12.3125 -1.535156 11.78125 -1.140625 C 11.320312 -0.804688 10.757812 -0.5 10.09375 -0.21875 C 9.4375 0.0507812 8.664062 0.1875 7.78125 0.1875 Z M 7.78125 0.1875 "/></g></g></g><g fill="#00bf63" fill-opacity="1"><g transform="translate(188.57873, 260.907614)"><g><path d="M 1.9375 -12.953125 L 3.140625 -12.953125 L 8.515625 -5.921875 L 13.890625 -12.953125 L 15.09375 -12.953125 L 15.09375 0 L 13.703125 0 L 13.703125 -10.546875 L 8.515625 -3.703125 L 3.328125 -10.546875 L 3.328125 0 L 1.9375 0 Z M 1.9375 -12.953125 "/></g></g></g><g fill="#00bf63" fill-opacity="1"><g transform="translate(217.452484, 260.907614)"><g><path d="M 0.5625 -12.953125 L 2.03125 -12.953125 L 6.296875 -1.9375 L 10.546875 -12.953125 L 12.03125 -12.953125 L 6.9375 0 L 5.640625 0 Z M 0.5625 -12.953125 "/></g></g></g><g fill="#00bf63" fill-opacity="1"><g transform="translate(241.884861, 260.907614)"><g><path d="M 7.78125 0.1875 C 6.851562 0.1875 5.984375 0.015625 5.171875 -0.328125 C 4.367188 -0.679688 3.660156 -1.160156 3.046875 -1.765625 C 2.441406 -2.367188 1.96875 -3.070312 1.625 -3.875 C 1.28125 -4.6875 1.109375 -5.554688 1.109375 -6.484375 C 1.109375 -7.410156 1.28125 -8.273438 1.625 -9.078125 C 1.96875 -9.890625 2.441406 -10.597656 3.046875 -11.203125 C 3.660156 -11.804688 4.367188 -12.28125 5.171875 -12.625 C 5.984375 -12.96875 6.851562 -13.140625 7.78125 -13.140625 C 8.664062 -13.140625 9.4375 -13 10.09375 -12.71875 C 10.75 -12.4375 11.296875 -12.128906 11.734375 -11.796875 C 12.242188 -11.398438 12.679688 -10.957031 13.046875 -10.46875 L 12.125 -9.625 C 11.832031 -10.039062 11.472656 -10.410156 11.046875 -10.734375 C 10.691406 -11.023438 10.242188 -11.28125 9.703125 -11.5 C 9.160156 -11.726562 8.519531 -11.84375 7.78125 -11.84375 C 7.039062 -11.84375 6.347656 -11.707031 5.703125 -11.4375 C 5.054688 -11.164062 4.492188 -10.789062 4.015625 -10.3125 C 3.546875 -9.832031 3.175781 -9.265625 2.90625 -8.609375 C 2.632812 -7.953125 2.5 -7.242188 2.5 -6.484375 C 2.5 -5.710938 2.632812 -5 2.90625 -4.34375 C 3.175781 -3.695312 3.546875 -3.128906 4.015625 -2.640625 C 4.492188 -2.160156 5.054688 -1.785156 5.703125 -1.515625 C 6.347656 -1.242188 7.039062 -1.109375 7.78125 -1.109375 C 8.519531 -1.109375 9.164062 -1.222656 9.71875 -1.453125 C 10.269531 -1.679688 10.734375 -1.9375 11.109375 -2.21875 C 11.535156 -2.539062 11.90625 -2.910156 12.21875 -3.328125 L 13.140625 -2.5 C 12.765625 -1.988281 12.3125 -1.535156 11.78125 -1.140625 C 11.320312 -0.804688 10.757812 -0.5 10.09375 -0.21875 C 9.4375 0.0507812 8.664062 0.1875 7.78125 0.1875 Z M 7.78125 0.1875 "/></g></g></g></svg>